<?xml version="1.0" encoding="UTF-8" standalone="no"?>
<svg
   xmlns:dc="http://purl.org/dc/elements/1.1/"
   xmlns:cc="http://creativecommons.org/ns#"
   xmlns:rdf="http://www.w3.org/1999/02/22-rdf-syntax-ns#"
   xmlns:svg="http://www.w3.org/2000/svg"
   xmlns="http://www.w3.org/2000/svg"
   xmlns:sodipodi="http://sodipodi.sourceforge.net/DTD/sodipodi-0.dtd"
   xmlns:inkscape="http://www.inkscape.org/namespaces/inkscape"
   id="Layer_1"
   style="enable-background:new 0 0 100 100;"
   version="1.1"
   viewBox="0 0 100 100"
   xml:space="preserve"
   sodipodi:docname="menu.svg"
   inkscape:version="0.92.1 r15371"><metadata
     id="metadata15"><rdf:RDF><cc:Work
         rdf:about=""><dc:format>image/svg+xml</dc:format><dc:type
           rdf:resource="http://purl.org/dc/dcmitype/StillImage" /></cc:Work></rdf:RDF></metadata><defs
     id="defs13" /><sodipodi:namedview
     pagecolor="#ffffff"
     bordercolor="#666666"
     borderopacity="1"
     objecttolerance="10"
     gridtolerance="10"
     guidetolerance="10"
     inkscape:pageopacity="0"
     inkscape:pageshadow="2"
     inkscape:window-width="1920"
     inkscape:window-height="1016"
     id="namedview11"
     showgrid="false"
     inkscape:zoom="2.36"
     inkscape:cx="-32.627119"
     inkscape:cy="50"
     inkscape:window-x="0"
     inkscape:window-y="27"
     inkscape:window-maximized="1"
     inkscape:current-layer="Layer_1" /><g
     id="g4498"><path
       d="M 74.791,35.706 H 24.92 c -0.553,0 -1,-0.448 -1,-1 0,-0.552 0.447,-1 1,-1 h 49.871 c 0.553,0 1,0.448 1,1 0,0.552 -0.447,1 -1,1 z"
       style="fill:#ffffff;fill-opacity:1"
       id="path2"
       inkscape:connector-curvature="0" /><path
       d="M 74.791,51.855 H 24.92 c -0.553,0 -1,-0.448 -1,-1 0,-0.552 0.447,-1 1,-1 h 49.871 c 0.553,0 1,0.448 1,1 0,0.552 -0.447,1 -1,1 z"
       style="fill:#ffffff;fill-opacity:1"
       id="path4"
       inkscape:connector-curvature="0" /><path
       d="M 74.791,68.003 H 24.92 c -0.553,0 -1,-0.448 -1,-1 0,-0.552 0.447,-1 1,-1 h 49.871 c 0.553,0 1,0.448 1,1 0,0.552 -0.447,1 -1,1 z"
       style="fill:#ffffff;fill-opacity:1"
       id="path6"
       inkscape:connector-curvature="0" /></g></svg>